<svg width="120" height="80" viewBox="0 0 175 125" fill="none" xmlns="http://www.w3.org/2000/svg">
<g filter="url(#filter0_d)">
<g filter="url(#filter1_d)">
<path d="M45.7248 94.3889V43.3409H50.7648V73.0049L78.9168 43.2689H84.4608L63.5808 65.7329L85.5408 94.3889H79.9968L60.4128 68.6849L50.7648 78.6929V94.3889H45.7248ZM128.638 94.3889V52.4129L109.99 84.8849H107.038L88.3904 52.4129V94.3889H83.3504V43.2689H88.5344L108.478 78.2609L128.566 43.2689H133.678V94.3889H128.638Z" fill="#F7F7F7"/>
<path d="M45.7248 94.3889H44.7248V95.3889H45.7248V94.3889ZM45.7248 43.3409V42.3409H44.7248V43.3409H45.7248ZM50.7648 43.3409H51.7648V42.3409H50.7648V43.3409ZM50.7648 73.0049H49.7648V75.5157L51.491 73.6924L50.7648 73.0049ZM78.9168 43.2689V42.2689H78.4865L78.1906 42.5814L78.9168 43.2689ZM84.4608 43.2689L85.1933 43.9497L86.7556 42.2689H84.4608V43.2689ZM63.5808 65.7329L62.8484 65.0521L62.2733 65.6707L62.7871 66.3411L63.5808 65.7329ZM85.5408 94.3889V95.3889H87.567L86.3346 93.7806L85.5408 94.3889ZM79.9968 94.3889L79.2014 94.9949L79.5015 95.3889H79.9968V94.3889ZM60.4128 68.6849L61.2083 68.0788L60.5019 67.1517L59.6929 67.9908L60.4128 68.6849ZM50.7648 78.6929L50.0449 77.9988L49.7648 78.2894V78.6929H50.7648ZM50.7648 94.3889V95.3889H51.7648V94.3889H50.7648ZM46.7248 94.3889V43.3409H44.7248V94.3889H46.7248ZM45.7248 44.3409H50.7648V42.3409H45.7248V44.3409ZM49.7648 43.3409V73.0049H51.7648V43.3409H49.7648ZM51.491 73.6924L79.643 43.9564L78.1906 42.5814L50.0386 72.3174L51.491 73.6924ZM78.9168 44.2689H84.4608V42.2689H78.9168V44.2689ZM83.7284 42.5881L62.8484 65.0521L64.3133 66.4137L85.1933 43.9497L83.7284 42.5881ZM62.7871 66.3411L84.7471 94.9971L86.3346 93.7806L64.3746 65.1246L62.7871 66.3411ZM85.5408 93.3889H79.9968V95.3889H85.5408V93.3889ZM80.7922 93.7828L61.2083 68.0788L59.6174 69.2909L79.2014 94.9949L80.7922 93.7828ZM59.6929 67.9908L50.0449 77.9988L51.4848 79.3869L61.1328 69.3789L59.6929 67.9908ZM49.7648 78.6929V94.3889H51.7648V78.6929H49.7648ZM50.7648 93.3889H45.7248V95.3889H50.7648V93.3889ZM128.638 94.3889H127.638V95.3889H128.638V94.3889ZM128.638 52.4129H129.638V48.6635L127.771 51.9149L128.638 52.4129ZM109.99 84.8849V85.8849H110.569L110.858 85.3829L109.99 84.8849ZM107.038 84.8849L106.171 85.3829L106.46 85.8849H107.038V84.8849ZM88.3904 52.4129L89.2576 51.9149L87.3904 48.6635V52.4129H88.3904ZM88.3904 94.3889V95.3889H89.3904V94.3889H88.3904ZM83.3504 94.3889H82.3504V95.3889H83.3504V94.3889ZM83.3504 43.2689V42.2689H82.3504V43.2689H83.3504ZM88.5344 43.2689L89.4032 42.7737L89.1155 42.2689H88.5344V43.2689ZM108.478 78.2609L107.61 78.7561L108.475 80.2749L109.346 78.7588L108.478 78.2609ZM128.566 43.2689V42.2689H127.987L127.699 42.771L128.566 43.2689ZM133.678 43.2689H134.678V42.2689H133.678V43.2689ZM133.678 94.3889V95.3889H134.678V94.3889H133.678ZM129.638 94.3889V52.4129H127.638V94.3889H129.638ZM127.771 51.9149L109.123 84.3869L110.858 85.3829L129.506 52.9109L127.771 51.9149ZM109.99 83.8849H107.038V85.8849H109.99V83.8849ZM107.906 84.3869L89.2576 51.9149L87.5233 52.9109L106.171 85.3829L107.906 84.3869ZM87.3904 52.4129V94.3889H89.3904V52.4129H87.3904ZM88.3904 93.3889H83.3504V95.3889H88.3904V93.3889ZM84.3504 94.3889V43.2689H82.3504V94.3889H84.3504ZM83.3504 44.2689H88.5344V42.2689H83.3504V44.2689ZM87.6657 43.7641L107.61 78.7561L109.347 77.7657L89.4032 42.7737L87.6657 43.7641ZM109.346 78.7588L129.434 43.7668L127.699 42.771L107.611 77.763L109.346 78.7588ZM128.566 44.2689H133.678V42.2689H128.566V44.2689ZM132.678 43.2689V94.3889H134.678V43.2689H132.678ZM133.678 93.3889H128.638V95.3889H133.678V93.3889Z" fill="black" fill-opacity="0.1"/>
</g>
</g>
<defs>
<filter id="filter0_d" x="-4" y="0" width="183" height="133" filterUnits="userSpaceOnUse" color-interpolation-filters="sRGB">
<feFlood flood-opacity="0" result="BackgroundImageFix"/>
<feColorMatrix in="SourceAlpha" type="matrix" values="0 0 0 0 0 0 0 0 0 0 0 0 0 0 0 0 0 0 127 0"/>
<feOffset dy="4"/>
<feGaussianBlur stdDeviation="2"/>
<feColorMatrix type="matrix" values="0 0 0 0 0 0 0 0 0 0 0 0 0 0 0 0 0 0 0.25 0"/>
<feBlend mode="normal" in2="BackgroundImageFix" result="effect1_dropShadow"/>
<feBlend mode="normal" in="SourceGraphic" in2="effect1_dropShadow" result="shape"/>
</filter>
<filter id="filter1_d" x="40.7248" y="42.2689" width="97.9536" height="61.12" filterUnits="userSpaceOnUse" color-interpolation-filters="sRGB">
<feFlood flood-opacity="0" result="BackgroundImageFix"/>
<feColorMatrix in="SourceAlpha" type="matrix" values="0 0 0 0 0 0 0 0 0 0 0 0 0 0 0 0 0 0 127 0"/>
<feOffset dy="4"/>
<feGaussianBlur stdDeviation="2"/>
<feColorMatrix type="matrix" values="0 0 0 0 0 0 0 0 0 0 0 0 0 0 0 0 0 0 0.25 0"/>
<feBlend mode="normal" in2="BackgroundImageFix" result="effect1_dropShadow"/>
<feBlend mode="normal" in="SourceGraphic" in2="effect1_dropShadow" result="shape"/>
</filter>
</defs>
</svg>
